HIERARCHY
ROOT root
{
	OFFSET 0.000000 0.000000 0.000000
	CHANNELS 6 Xposition Yposition Zposition Zrotation Yrotation Xrotation
	JOINT lhip
	{
		OFFSET 0.058581 -0.082280 -0.017664
		CHANNELS 3 Zrotation Yrotation Xrotation
		JOINT lknee
		{
			OFFSET 0.043451 -0.386469 0.008037
			CHANNELS 3 Zrotation Yrotation Xrotation
			JOINT lankle
			{
				OFFSET -0.014790 -0.426874 -0.037428
				CHANNELS 3 Zrotation Yrotation Xrotation
				JOINT ltoe
				{
					OFFSET 0.041054 -0.060286 0.122042
					CHANNELS 3 Zrotation Yrotation Xrotation
					End Site
					{
						OFFSET 0.000000 0.000000 0.000000
					}
				}
			}
		}
	}
	JOINT rhip
	{
		OFFSET -0.060310 -0.090513 -0.013543
		CHANNELS 3 Zrotation Yrotation Xrotation
		JOINT rknee
		{
			OFFSET -0.043257 -0.383688 -0.004843
			CHANNELS 3 Zrotation Yrotation Xrotation
			JOINT rankle
			{
				OFFSET 0.019056 -0.420046 -0.034562
				CHANNELS 3 Zrotation Yrotation Xrotation
				JOINT rtoe
				{
					OFFSET -0.034840 -0.062106 0.130323
					CHANNELS 3 Zrotation Yrotation Xrotation
					End Site
					{
						OFFSET 0.000000 0.000000 0.000000
					}
				}
			}
		}
	}
	JOINT lowerback
	{
		OFFSET 0.004439 0.124404 -0.038385
		CHANNELS 3 Zrotation Yrotation Xrotation
		JOINT upperback
		{
			OFFSET 0.004488 0.137956 0.026820
			CHANNELS 3 Zrotation Yrotation Xrotation
			JOINT chest
			{
				OFFSET -0.002265 0.056032 0.002855
				CHANNELS 3 Zrotation Yrotation Xrotation
				JOINT lowerneck
				{
					OFFSET -0.013390 0.211636 -0.033468
					CHANNELS 3 Zrotation Yrotation Xrotation
					JOINT upperneck
					{
						OFFSET 0.010113 0.088937 0.050410
						CHANNELS 3 Zrotation Yrotation Xrotation
						End Site
						{
							OFFSET 0.000000 0.000000 0.000000
						}
					}
				}
				JOINT lclavicle
				{
					OFFSET 0.071702 0.114000 -0.018898
					CHANNELS 3 Zrotation Yrotation Xrotation
					JOINT lshoulder
					{
						OFFSET 0.122921 0.045205 -0.019046
						CHANNELS 3 Zrotation Yrotation Xrotation
						JOINT lelbow
						{
							OFFSET 0.255332 -0.015649 -0.022946
							CHANNELS 3 Zrotation Yrotation Xrotation
							JOINT lwrist
							{
								OFFSET 0.265709 0.012698 -0.007375
								CHANNELS 3 Zrotation Yrotation Xrotation
								End Site
								{
									OFFSET 0.000000 0.000000 0.000000
								}
							}
						}
					}
				}
				JOINT rclavicle
				{
					OFFSET -0.082954 0.112472 -0.023707
					CHANNELS 3 Zrotation Yrotation Xrotation
					JOINT rshoulder
					{
						OFFSET -0.113228 0.046853 -0.008472
						CHANNELS 3 Zrotation Yrotation Xrotation
						JOINT relbow
						{
							OFFSET -0.260127 -0.014369 -0.031269
							CHANNELS 3 Zrotation Yrotation Xrotation
							JOINT rwrist
							{
								OFFSET -0.269108 0.006794 -0.006027
								CHANNELS 3 Zrotation Yrotation Xrotation
								End Site
								{
									OFFSET 0.000000 0.000000 0.000000
								}
							}
						}
					}
				}
			}
		}
	}
}
MOTION
Frames: 14
Frame Time: 0.033333
-0.053764 -0.417661 0.998857 4.941039 -0.008754 84.946606 -1.702843 -2.517322 3.457754 -3.117180 -12.921617 10.036674 3.538387 7.645201 -11.529637 0.000000 -0.000000 0.000000 2.835715 1.333018 0.072468 0.843752 4.734355 17.088550 3.372497 -1.719325 -12.439941 0.000000 -0.000000 0.000000 0.114573 1.268154 12.848409 0.993874 0.537044 0.011317 -0.837806 0.237599 4.493171 1.032315 5.627455 12.888570 -3.426959 0.741097 19.093095 -26.558270 6.237825 2.868575 -57.001198 -7.852154 9.461357 13.748715 -34.386775 -0.774050 -2.278079 -3.930890 -9.168276 28.661828 -0.122949 3.280383 56.768817 5.460805 14.379940 -14.458409 23.063465 -7.319336 6.103225 2.713123 -8.000780 
-0.057343 -0.417231 0.998012 5.798967 -0.247367 85.006586 -1.799369 -2.486550 3.363746 -3.051196 -13.150234 9.886862 3.865611 7.801277 -11.642306 0.000000 -0.000000 0.000000 2.190965 0.862041 0.188455 1.623101 4.821735 16.747544 3.218963 -1.464667 -12.484124 0.000000 -0.000000 0.000000 0.387252 1.503070 13.061964 0.929227 0.559718 0.402180 -0.711580 0.143820 4.143042 0.716739 5.624252 12.082004 -3.430916 0.532487 18.451429 -26.315884 5.846122 3.337052 -58.088351 -7.282242 9.712701 13.593268 -33.640537 -0.730454 -1.980131 -4.019215 -10.255097 27.833879 1.298135 3.902311 57.309457 6.017935 14.319993 -13.392284 20.439275 -6.768918 6.505522 2.503897 -8.012404 
-0.061904 -0.417209 0.997028 6.607504 -0.322087 84.967818 -1.378930 -2.249412 3.400044 -3.122735 -13.248294 9.640414 3.702724 7.188385 -11.584374 0.000000 -0.000000 0.000000 2.117810 -0.075337 0.800462 1.810625 4.511899 15.749154 3.211677 -1.001723 -12.045047 0.000000 -0.000000 0.000000 0.387437 1.812832 13.316212 1.022307 0.479572 0.621396 -0.452621 0.151962 3.945803 0.851109 5.861439 11.488201 -3.539531 0.398956 18.757586 -26.367572 5.454236 3.671365 -57.974757 -6.855030 9.947241 11.896712 -32.867285 0.531599 -2.848543 -4.633038 -10.336751 28.368324 2.044365 4.030413 56.321182 6.686403 14.207335 -12.218390 18.887949 -6.217626 6.694120 2.765457 -7.205843 
-0.065974 -0.417881 0.996761 7.650114 -0.798354 84.995368 -1.607172 -2.518716 3.201784 -3.111596 -13.548805 9.833872 3.416926 6.791418 -11.581000 0.000000 -0.000000 0.000000 2.106788 -0.182431 1.172587 1.473637 4.111284 15.228368 3.207884 -1.692664 -11.959511 0.000000 -0.000000 0.000000 -0.032675 2.046199 13.523105 1.098874 0.350533 0.479428 -0.305434 0.060765 4.247020 1.040696 6.034077 10.886960 -3.767157 0.074433 18.896776 -26.311049 5.547548 3.272699 -57.250625 -6.472644 10.699543 9.140756 -32.278137 4.918505 -3.964257 -4.513527 -7.362811 29.114791 1.964764 3.104334 55.563351 7.119356 14.504660 -11.712793 18.357554 -4.934263 6.750322 2.861694 -5.793014 
-0.069476 -0.418229 0.997120 8.582733 -0.953633 85.314404 -1.768775 -3.021622 2.579391 -3.009094 -13.868370 10.303352 3.519330 6.916295 -11.713675 0.000000 -0.000000 0.000000 2.067835 -0.118327 0.723153 1.864147 4.000818 15.456674 2.910803 -2.377004 -11.975328 0.000000 -0.000000 0.000000 0.248552 1.870851 13.115671 1.128011 0.238451 0.583768 -0.495652 0.250265 4.466225 1.087515 6.164765 10.979065 -4.049848 0.051601 18.527215 -26.405077 5.373402 3.338503 -57.026533 -6.009405 11.072386 8.602716 -31.661063 7.219439 -5.387538 -4.304297 -5.240414 29.106108 2.074865 3.027636 55.630776 7.558830 14.568977 -12.077021 18.847706 -4.539227 6.696137 2.930711 -4.838627 
-0.071836 -0.418808 0.997187 9.969279 -1.085274 85.346797 -1.997671 -3.413908 2.007518 -2.924776 -14.506265 11.173058 3.467807 6.618879 -11.846149 0.000000 -0.000000 0.000000 2.048667 -0.620138 0.736716 1.922690 3.291139 15.359892 2.710961 -2.855436 -12.014223 0.000000 -0.000000 0.000000 0.723963 1.934345 13.330930 1.063902 0.191315 0.510669 -0.534341 -0.174029 4.300811 0.913694 5.781624 10.918800 -4.149197 0.350161 18.693037 -26.607036 5.325570 3.581510 -57.192910 -5.478140 11.048720 8.728839 -31.050395 7.653033 -5.926721 -3.795092 -4.330752 28.724502 2.043057 3.015360 55.922892 7.511536 14.391754 -12.971838 20.069354 -5.244082 6.467601 3.260361 -4.749260 
-0.073823 -0.419691 0.996699 11.608907 -1.242880 85.192511 -2.122005 -3.470111 1.568232 -2.835893 -14.970240 12.167736 3.088736 6.043835 -11.976840 0.000000 -0.000000 0.000000 1.878142 -1.291365 1.402735 1.929545 2.204669 14.669526 2.567269 -3.205733 -12.058807 0.000000 -0.000000 0.000000 1.218690 2.035670 13.489661 0.959727 -0.115692 0.653620 -0.491771 -0.333905 4.250079 0.587884 6.124951 11.223916 -4.265084 0.889884 18.250032 -26.473447 4.834447 3.863045 -57.678954 -5.003141 10.792741 8.507605 -30.033685 7.908228 -5.350154 -3.903151 -4.965162 28.409194 2.166891 3.575904 55.968815 7.722328 13.876786 -13.424561 22.003545 -5.861319 5.518025 3.564394 -6.079299 
-0.075721 -0.419289 0.996474 13.326160 -1.485477 85.263899 -1.934166 -3.663032 0.491452 -3.557509 -14.449262 13.699364 2.764562 6.110069 -12.987205 0.000000 -0.000000 0.000000 1.351036 -1.936737 1.767635 2.494266 1.432496 13.910895 2.559434 -3.299854 -11.965160 0.000000 -0.000000 0.000000 1.450435 2.051730 13.559509 0.986899 -0.520887 0.778360 -0.379134 -0.360796 4.078106 0.194829 6.289204 11.194386 -4.377725 1.581112 17.901353 -26.729708 4.433316 4.090917 -57.658984 -4.669025 10.372627 8.463891 -29.404996 7.068902 -5.627671 -3.511952 -5.230197 28.185587 2.323030 3.675742 55.414993 7.916146 13.632174 -13.514324 23.564389 -6.264665 5.881137 3.678304 -6.316510 
-0.077360 -0.419967 0.996710 15.521628 -1.659964 84.933934 -1.480052 -3.044196 -0.382752 -4.311432 -12.964205 15.567249 2.061348 6.485529 -14.833948 0.000000 -0.000000 0.000000 1.134147 -2.699468 2.660429 2.595658 0.414435 13.095807 2.426679 -3.746773 -11.938946 0.000000 -0.000000 0.000000 1.723008 2.058981 13.975810 0.955052 -0.665713 0.455756 -0.204127 -0.519198 4.502238 -0.284194 6.760449 10.753013 -4.475139 2.257831 18.126270 -26.889957 4.397310 3.645866 -57.849097 -4.545087 10.026256 8.412278 -28.805452 7.584553 -4.621166 -3.655878 -4.968784 28.039768 2.123129 3.429702 54.721796 7.908835 13.766472 -13.168640 25.237553 -5.305887 4.512389 3.882856 -6.069830 
-0.077458 -0.420713 0.996795 17.840184 -1.908169 84.955851 -1.095915 -2.146023 -1.474581 -4.561094 -9.068570 16.720217 2.251952 8.344421 -16.058912 0.000000 -0.000000 0.000000 0.679009 -3.431186 3.059007 2.799103 -0.940679 12.520281 2.505706 -3.968524 -11.962688 0.000000 -0.000000 0.000000 2.028064 2.037038 13.904282 0.965825 -0.942474 0.341258 -0.173800 -0.390790 4.484906 -0.506298 7.175509 10.842682 -4.551676 3.483614 18.223848 -26.845384 4.383884 3.770948 -58.009636 -4.611920 9.371909 8.680922 -29.244020 6.992964 -5.059243 -3.488270 -5.554574 27.696781 1.980882 3.609109 54.518144 8.269232 13.573930 -13.410071 25.756863 -5.304578 4.812260 3.886354 -5.933814 
-0.077378 -0.422431 0.997333 20.295210 -2.168840 84.648045 -0.649826 -0.187391 -1.988856 -3.947450 -4.153676 17.322710 3.058491 10.425769 -16.597618 0.000000 -0.000000 0.000000 0.417320 -4.104416 3.937451 2.673950 -2.295229 11.763551 2.482836 -4.331200 -11.990058 0.000000 -0.000000 0.000000 2.196618 2.014488 13.981380 0.930149 -0.959959 0.249526 -0.138977 -0.290101 4.406361 -0.576367 6.927853 10.873185 -4.633489 4.519545 18.386840 -26.736495 4.198135 4.021240 -57.918632 -4.801501 8.845499 8.658545 -29.729258 7.284683 -5.050939 -3.753957 -5.239044 27.623106 2.032705 3.833318 53.919277 8.663667 12.944800 -12.870523 25.375227 -5.753714 4.552712 4.122353 -6.206311 
-0.077722 -0.423954 0.997064 23.061599 -2.375419 84.340464 0.142087 1.793405 -2.388649 -4.097337 1.044485 17.693847 3.833940 12.785751 -16.391951 0.000000 -0.000000 0.000000 0.077217 -5.220601 4.862358 2.793124 -3.596826 11.083640 2.397122 -4.608004 -12.047396 0.000000 -0.000000 0.000000 1.907497 2.115380 14.159377 1.040248 -0.844312 -0.178895 0.317225 -0.374422 4.565872 -0.755282 7.324104 10.578880 -4.524315 5.690107 18.855684 -26.609580 3.959904 4.194532 -57.866654 -5.109247 8.429411 8.525630 -30.314195 7.435118 -4.363104 -3.753433 -5.038444 27.205194 1.951253 3.985969 53.533050 8.975159 12.631857 -12.415657 24.588098 -5.963653 4.109615 4.122780 -6.075924 
-0.076000 -0.425529 0.996621 25.896339 -2.551682 84.300998 0.574747 3.578642 -2.969390 -3.813914 4.973062 17.980001 4.679389 14.264696 -16.029329 0.000000 -0.000000 0.000000 -0.277826 -6.330031 5.328849 2.820425 -4.804790 10.774676 2.375410 -4.830048 -12.189856 0.000000 -0.000000 0.000000 2.169073 2.099258 13.963482 0.932177 -0.788135 -0.570118 0.290843 -0.193928 4.622527 -1.072899 7.642325 10.532918 -4.544199 6.917671 18.726873 -26.485415 4.066448 3.977520 -57.626277 -5.444535 8.035995 8.130897 -31.189013 7.974815 -3.578393 -3.910336 -4.320080 26.978882 1.805003 3.965161 53.007934 8.750746 12.366647 -12.300854 23.696925 -5.479509 3.840333 3.913754 -4.718021 
-0.073926 -0.427272 0.995807 28.968496 -2.682109 84.115074 0.776524 4.719136 -2.786392 -3.731878 7.472868 17.203935 5.197202 15.233622 -15.645650 0.000000 -0.000000 0.000000 -0.504137 -7.001952 5.844564 2.860386 -6.118469 10.683767 2.294977 -5.540044 -12.446196 0.000000 -0.000000 0.000000 2.246372 2.047817 13.944016 0.917473 -0.693126 -0.807059 0.404711 -0.296628 4.346923 -1.203648 7.453721 10.340490 -4.511693 7.553073 18.701385 -26.695820 3.926295 4.401192 -57.069254 -5.734475 7.672556 7.947583 -32.461777 7.766604 -4.414862 -4.233394 -4.269825 26.725735 1.976546 4.326558 52.587487 8.519185 12.029581 -12.320269 22.682451 -5.636595 4.473485 3.966611 -3.612232 
